<svg width="250" height="250" viewBox="0 0 250 250" fill="none" xmlns="http://www.w3.org/2000/svg">
<path fill-rule="evenodd" clip-rule="evenodd" d="M230.304 172.55C256.566 146.288 256.566 103.709 230.304 77.4471C230.304 77.4471 160.128 4.99139 150.573 0.877224C150.126 0.684684 150.163 0.52316 150.193 0.393326C150.253 0.132899 150.283 -2.41062e-05 146.318 3.27912e-09C140.375 3.61324e-05 135.558 4.81734 135.558 10.7597V38.7829C135.558 44.7253 140.375 49.5426 146.318 49.5426H157.974C182.734 49.5426 202.806 66.6146 202.806 91.3746V158.623C202.806 183.383 182.734 200.455 157.974 200.455H146.318C140.375 200.455 135.558 205.272 135.558 211.214V239.238C135.558 240.701 135.856 242.149 136.435 243.493C138.785 248.951 145.115 251.47 150.573 249.12C160.128 245.006 230.304 172.55 230.304 172.55ZM114.442 38.7857V10.7625C114.442 9.29915 114.144 7.85118 113.565 6.50714C111.215 1.0492 104.885 -1.47018 99.4271 0.879968C89.8724 4.99413 19.6965 77.4499 19.6965 77.4499C-6.5655 103.712 -6.5655 146.291 19.6965 172.553C19.6965 172.553 89.8724 245.009 99.4271 249.123C100.771 249.702 102.219 250 103.682 250C109.625 250 114.442 245.183 114.442 239.24V211.217C114.442 205.275 109.625 200.457 103.682 200.457H92.026C67.266 200.457 47.194 183.385 47.194 158.625V91.3774C47.194 66.6173 67.266 49.5454 92.026 49.5454H103.682C109.625 49.5454 114.442 44.7281 114.442 38.7857Z" fill="#3E71F8"/>
</svg>
